{"title":"Alice In Chains - Black Gives Way To Blue - CD remaster by MC Lu","uid":7398396,"size":1317943664,"categoryP":"audio","categoryS":"flac","magnet":"?xt=urn:btih:d76ab23174f38dc64d34b2854f66396eae9b6615&amp;dn=Alice+In+Chains+-+Black+Gives+Way+To+Blue+-+CD+remaster+by+MC+Lu&amp;tr=udp%3A%2F%2Ftracker.openbittorrent.com%3A80&amp;tr=udp%3A%2F%2Fopen.demonii.com%3A1337&amp;tr=udp%3A%2F%2Ftracker.coppersurfer.tk%3A6969&amp;tr=udp%3A%2F%2Fexodus.desync.com%3A6969","seeders":1,"leechers":0,"uploader":"beavis39","files":-1,"time":1340990854,"description":"Alice In Chains - Black Gives Way To Blue - CD remaster by MC Lurken (a.k.a. Beavis39)\n\n\n!!!!!!!!!!!!!THIS IS NOT AN OFFICIAL REMASTER, THIS IS A FAN RELEASE!!!!!!!!!!!!!!\n!!!!!!!!!!!!!THIS IS NOT AN OFFICIAL REMASTER, THIS IS A FAN RELEASE!!!!!!!!!!!!!!\n!!!!!!!!!!!!!THIS IS NOT AN OFFICIAL REMASTER, THIS IS A FAN RELEASE!!!!!!!!!!!!!!\n\n\n1 - All Secrets Known\n2 - Check My Brain\n3 - Last Of My Kind\n4 - Your Decision\n5 - A Looking In View\n6 - When The Sun Rose Again\n7 - Acid Bubble\n8 - Lesson Learned\n9 - Take Her Out\n10 - Private Hell\n11 - Black Gives Way To Blue\n\n\nSetup\n-HP G72-250US\n-Intel Core i3 M350 2.27GHz\n-8Gb PC3-10700 RAM\n-Win7 64-bit SP1\n-SB X-Fi Surround 5.1\n\nProcess\n-Original 16/44.1 files joined in Wavelab 6\n-DC offset removed, this will yield a file with a bit depth of 18-24 bits\n-Resample to 384kHz in Wavelab w/crystal resampler ultra(slow) relax background priority\n-Perform 2-pass recording process in Wavelab @ 64-bit float/384kHz 0db gain\n\nAs reported in Wavelab:\n-Original 16/44 - Apparent Bit Resolution = 16, Peak = -0.195db\n-DC Offset Removed - Apparent Bit Resolution = 21, Peak = -0.194db\n-Final Recording - Apparent Bit Resolution = 40, Peak = 4.148db\n\n-Convert newly recorded 64/384 file to DSD128 with Weiss Saracon 1.61-27*\n*this step allows me to keep nearly all of the detail of the 64/384 file when going to lower bit depths/sampling frequencies\n\nSettings in Weiss Saracon:\n-Modulator Type - CRFB 10th Order\n-Sample Rate - 5.6448MHz\n-Gain (db SACD) = -0.948db*\n*max. SACD input level = 3.2db\n-Stabilizer - off\n-Dither - off\n\n-Convert newly created DSD file to 24-bit/96kHz wav file with Weiss Saracon 1.61-27 w/0db gain and TPDF dither\n-Apply precision 6db gain* and MBIT+ Dither (Noise Shaping - Medium, Dither Amount - High, Auto-blanking - on) in Wavelab w/Izotope Ozone 4 VST Plugin\n*DSD -&gt; PCM = -6db\n-Flac encode level 0 with Trader's Little Helper\n-Tag and pic with xrecode II\n\n\nfoobar2000 1.1.13 / Dynamic Range Meter 1.1.1\nlog date: 2012-06-29 09:17:03\n\n--------------------------------------------------------------------------------\nAnalyzed: ? / ?\n--------------------------------------------------------------------------------\n\nDR         Peak         RMS     Duration Track\n--------------------------------------------------------------------------------\nDR6       -0.07 dB    -7.31 dB      4:43 ?-01 - All Secrets Known\nDR5       -0.07 dB    -6.19 dB      3:58 ?-02 - Check My Brain\nDR5       -0.07 dB    -6.42 dB      5:53 ?-03 - Last Of My Kind\nDR7       -0.07 dB    -8.54 dB      4:43 ?-04 - Your Decision\nDR5       -0.07 dB    -6.43 dB      7:06 ?-05 - A Looking In View\nDR8       -0.07 dB    -9.40 dB      4:00 ?-06 - When The Sun Rose Again\nDR5       -0.07 dB    -6.83 dB      6:56 ?-07 - Acid Bubble\nDR6       -0.07 dB    -6.46 dB      4:17 ?-08 - Lesson Learned\nDR6       -0.07 dB    -6.88 dB      4:00 ?-09 - Take Her Out\nDR5       -0.07 dB    -7.05 dB      5:38 ?-10 - Private Hell\nDR9       -0.52 dB   -11.06 dB      3:04 ?-11 - Black Gives Way To Blue\n--------------------------------------------------------------------------------\n\nNumber of tracks:  11\nOfficial DR value: DR6\n\nSamplerate:        96000 Hz\nChannels:          2\nBits per sample:   24\nBitrate:           4608 kbps\nCodec:             PCM\n\n\n\nenjoy :)\n\n\n\n","torrent":{"xt":"urn:btih:d76ab23174f38dc64d34b2854f66396eae9b6615","amp;dn":"Alice+In+Chains+-+Black+Gives+Way+To+Blue+-+CD+remaster+by+MC+Lu","amp;tr":["udp%3A%2F%2Ftracker.openbittorrent.com%3A80","udp%3A%2F%2Fopen.demonii.com%3A1337","udp%3A%2F%2Ftracker.coppersurfer.tk%3A6969","udp%3A%2F%2Fexodus.desync.com%3A6969"],"infoHash":"d76ab23174f38dc64d34b2854f66396eae9b6615","infoHashBuffer":{"type":"Buffer","data":[215,106,178,49,116,243,141,198,77,52,178,133,79,102,57,110,174,155,102,21]},"announce":[],"urlList":[]}}